<?xml version="1.0" encoding="UTF-8"?>
<svg width="176px" height="56px" viewBox="0 0 176 56" version="1.1" xmlns="http://www.w3.org/2000/svg" xmlns:xlink="http://www.w3.org/1999/xlink">
    <!-- Generator: Sketch 41.2 (35397) - http://www.bohemiancoding.com/sketch -->
    <title>VIOLET LOGO</title>
    <desc>Created with Sketch.</desc>
    <defs>
        <path d="M50.528233,6.34955269 C50.528233,10.0625003 53.6500971,12.4604004 57.9133981,12.4604004 C61.8725437,12.4604004 65.0700194,10.0625003 65.0700194,6.34955269 C65.0700194,2.79154634 61.8725437,0.316392612 57.9133981,0.316392612 C53.6500971,0.316392612 50.528233,2.79154634 50.528233,6.34955269 L50.528233,6.34955269 Z M102.337165,3.5649505 L102.337165,3.64220411 C104.620893,5.4216413 104.925476,11.9964447 104.925476,29.1684475 C104.925476,44.7159544 104.544854,52.2191032 102.032583,53.3792095 L102.032583,53.4564631 L119.16268,53.4564631 L119.16268,53.3792095 C116.650408,52.2191032 116.269786,44.7159544 116.269786,29.1684475 C116.269786,16.7922449 116.421864,7.27789809 118.325398,0.780348307 L118.249359,0.703094693 L102.337165,3.5649505 L102.337165,3.5649505 Z M150.529553,16.173348 L149.920816,16.173348 L149.920816,16.4827964 L155.021825,16.4827964 L154.717243,43.6331018 C154.716388,43.7333579 154.715534,43.832312 154.715534,43.930832 C154.715107,51.5910921 157.602874,54.2298673 162.939689,54.2298673 C167.431961,54.2298673 171.466718,52.3736105 175.806485,48.8156041 L175.806485,48.6606629 C174.249398,49.480072 172.610718,50.0312635 171.161709,50.0312635 C168.672932,50.0312635 166.743767,48.4058996 166.745476,43.7233757 C166.745476,43.6678225 166.745903,43.6122694 166.74633,43.5558482 L166.74633,16.4827964 L173.294214,16.4827964 L173.294214,16.173348 L166.974874,16.173348 L166.974874,2.79154634 C165.680505,12.1509519 155.859107,16.173348 150.529553,16.173348 L150.529553,16.173348 Z M33.6424854,3.5649505 L33.6424854,3.64220411 C37.4837282,4.43296864 39.958835,8.09426915 39.956699,13.7407271 C39.9554175,16.9350339 39.1612816,20.7647299 37.3730874,25.0687979 L31.8910291,38.3729119 L22.6787961,18.8806966 C19.8538252,12.9100338 17.8669903,8.08992906 17.870835,5.46374018 C17.8721165,4.55145311 18.1139029,3.90391158 18.6436117,3.5649505 L0.143106796,3.5649505 L0.143106796,3.64220411 C2.12267961,4.80274437 4.86349515,9.28909612 8.3655534,16.9467521 L21.4608932,45.4893586 C23.2879612,49.5117547 24.7344078,52.9152538 25.4196117,54.8487642 L25.4960777,54.8487642 L37.7537087,25.1460515 C42.6261748,13.3887458 47.7271845,5.49889491 50.544466,3.64220411 L50.544466,3.5649505 L33.6424854,3.5649505 L33.6424854,3.5649505 Z M119.010175,34.9698468 C119.010175,46.3400164 127.004505,54.2298673 137.054447,54.2298673 C145.505437,54.2298673 150.07332,50.2851588 151.596233,46.8816597 L151.520194,46.8044061 C149.388117,49.434067 146.647301,51.058563 142.536078,51.058563 C135.912583,51.058563 131.268233,45.3348514 131.268233,33.3453508 C131.268233,21.9747472 133.399883,15.3222562 136.901942,15.3222562 C139.262136,15.3222562 141.317748,18.4163069 141.317748,26.3061577 C141.317748,31.4114064 138.957981,33.4226044 135.912583,33.4226044 C134.922796,33.4226044 133.856971,33.1904096 132.71468,32.8037075 L132.71468,32.8809611 C134.84633,34.0415014 138.120272,34.7376519 140.861087,34.7376519 C146.875845,34.7376519 151.596233,31.101958 151.596233,24.836603 C151.596233,17.8750975 145.505437,14.7810469 138.27235,14.7810469 C124.568272,14.7810469 119.010175,25.0687979 119.010175,34.9698468 L119.010175,34.9698468 Z M66.7450097,34.3509498 C66.7450097,45.2571638 73.7495534,54.2298673 84.2561553,54.2298673 C95.1433786,54.2298673 102.071456,44.7932081 102.071456,33.9642478 C102.071456,23.9859452 96.3612816,14.8583005 85.0934369,14.8583005 C74.1301748,14.8583005 66.7450097,23.4443019 66.7450097,34.3509498 L66.7450097,34.3509498 Z M79.0026408,32.0303034 C79.0026408,18.8806966 80.7536699,15.3999438 83.4949126,15.3999438 C87.5296699,15.3999438 89.9659029,22.5936441 89.9659029,36.3617139 C89.9659029,49.434067 88.3673786,53.7659116 85.4740583,53.7659116 C81.5153398,53.7659116 79.0026408,46.0310019 79.0026408,32.0303034 L79.0026408,32.0303034 Z M49.7669903,16.0960944 L49.7669903,16.2506016 C52.2796893,17.4107078 52.6603107,24.9138566 52.6603107,34.8149055 C52.6603107,44.7159544 52.2796893,52.2191032 49.7669903,53.3792095 L49.7669903,53.4564631 L66.8975146,53.4564631 L66.8975146,53.3792095 C64.3848155,52.2191032 64.0041942,44.7159544 64.0041942,34.8149055 C64.0041942,24.9138566 64.3848155,17.8750975 64.8419029,16.173348 L64.8419029,16.0960944 L49.7669903,16.0960944 L49.7669903,16.0960944 Z" id="path-1"></path>
    </defs>
    <g id="DESKTOP" stroke="none" stroke-width="1" fill="none" fill-rule="evenodd">
        <g id="EMAIL-SIGN-UP-PAGE" transform="translate(-56.000000, -54.000000)">
            <g id="VIOLET-LOGO" transform="translate(56.000000, 54.000000)">
                <path d="M25.4960777,55.1460604 L25.4196117,55.1460604 C24.7344078,53.21255 23.2879612,49.8090509 21.4608932,45.7866548 L8.3655534,17.2440484 C4.86349515,9.58639233 2.12267961,5.10004058 0.143106796,3.93950033 L0.143106796,3.86224671 L18.6436117,3.86224671 C18.1139029,4.20120779 17.8721165,4.84874933 17.870835,5.76103639 C17.8669903,8.38722527 19.8538252,13.20733 22.6787961,19.1779928 L31.8910291,38.6702081 L37.3730874,25.3660941 C39.1612816,21.0620261 39.9554175,17.2323301 39.956699,14.0380234 C39.958835,8.39156536 37.4837282,4.73026485 33.6424854,3.93950033 L33.6424854,3.86224671 L50.544466,3.86224671 L50.544466,3.93950033 C47.7271845,5.79619113 42.6261748,13.686042 37.7537087,25.4433477 L25.4960777,55.1460604 M162.939689,54.5271635 C157.602874,54.5271635 154.715107,51.8883883 154.715534,44.2281283 C154.715534,44.1296082 154.716388,44.0306541 154.717243,43.930398 L155.021825,16.7800927 L149.920816,16.7800927 L149.920816,16.4706442 L150.529553,16.4706442 C155.859107,16.4706442 165.680505,12.4482481 166.974874,3.08884255 L166.974874,16.4706442 L173.294214,16.4706442 L173.294214,16.7800927 L166.74633,16.7800927 L166.74633,43.8531444 C166.745903,43.9095656 166.745476,43.9651188 166.745476,44.0206719 C166.743767,48.7031958 168.672932,50.3285597 171.161709,50.3285597 C172.610718,50.3285597 174.249398,49.7773682 175.806485,48.9579591 L175.806485,49.1129003 C171.466718,52.6709067 167.431961,54.5271635 162.939689,54.5271635 M137.054447,54.5271635 C127.004505,54.5271635 119.010175,46.6373126 119.010175,35.267143 C119.010175,25.3660941 124.568272,15.0783431 138.27235,15.0783431 C145.505437,15.0783431 151.596233,18.1723938 151.596233,25.1338992 C151.596233,31.3992542 146.875845,35.0349481 140.861087,35.0349481 C138.120272,35.0349481 134.84633,34.3387976 132.71468,33.1782573 L132.71468,33.1010037 C133.856971,33.4877058 134.922796,33.7199007 135.912583,33.7199007 C138.957981,33.7199007 141.317748,31.7087026 141.317748,26.6034539 C141.317748,18.7136031 139.262136,15.6195524 136.901942,15.6195524 C133.399883,15.6195524 131.268233,22.2720434 131.268233,33.642647 C131.268233,45.6321476 135.912583,51.3558592 142.536078,51.3558592 C146.647301,51.3558592 149.388117,49.7313633 151.520194,47.1017023 L151.596233,47.1789559 C150.07332,50.582455 145.505437,54.5271635 137.054447,54.5271635 M84.2561553,54.5271635 C73.7495534,54.5271635 66.7450097,45.55446 66.7450097,34.6482461 C66.7450097,23.7415981 74.1301748,15.1555967 85.0934369,15.1555967 C96.3612816,15.1555967 102.071456,24.2832415 102.071456,34.261544 C102.071456,45.0905043 95.1433786,54.5271635 84.2561553,54.5271635 M79.0026408,32.3275996 C79.0026408,46.3282981 81.5153398,54.0632078 85.4740583,54.0632078 C88.3673786,54.0632078 89.9659029,49.7313633 89.9659029,36.6590101 C89.9659029,22.8909404 87.5296699,15.69724 83.4949126,15.69724 C80.7536699,15.69724 79.0026408,19.1779928 79.0026408,32.3275996 M119.16268,53.7537593 L102.032583,53.7537593 L102.032583,53.6765057 C104.544854,52.5163995 104.925476,45.0132507 104.925476,29.4657438 C104.925476,12.2937409 104.620893,5.71893751 102.337165,3.93950033 L102.337165,3.86224671 L118.249359,1.00039091 L118.325398,1.07764452 C116.421864,7.5751943 116.269786,17.0895411 116.269786,29.4657438 C116.269786,45.0132507 116.650408,52.5163995 119.16268,53.6765057 L119.16268,53.7537593 M66.8975146,53.7537593 L49.7669903,53.7537593 L49.7669903,53.6765057 C52.2796893,52.5163995 52.6603107,45.0132507 52.6603107,35.1122018 C52.6603107,25.2111528 52.2796893,17.7080041 49.7669903,16.5478978 L49.7669903,16.3933906 L64.8419029,16.3933906 L64.8419029,16.4706442 C64.3848155,18.1723938 64.0041942,25.2111528 64.0041942,35.1122018 C64.0041942,45.0132507 64.3848155,52.5163995 66.8975146,53.6765057 L66.8975146,53.7537593 M57.9133981,12.7576966 C53.6500971,12.7576966 50.528233,10.3597965 50.528233,6.6468489 C50.528233,3.08884255 53.6500971,0.613688825 57.9133981,0.613688825 C61.8725437,0.613688825 65.0700194,3.08884255 65.0700194,6.6468489 C65.0700194,10.3597965 61.8725437,12.7576966 57.9133981,12.7576966" id="Fill-1" fill="#FFFFFF"></path>
                <g id="Group-6" transform="translate(0.000000, 0.297296)">
                    <mask id="mask-2" fill="white">
                        <use xlink:href="#path-1"></use>
                    </mask>
                    <g id="Clip-4"></g>
                    <polygon id="Fill-3" fill="#FFFFFF" mask="url(#mask-2)" points="-88.4271845 289.484049 189.376854 289.484049 189.376854 -73.644829 -88.4271845 -73.644829"></polygon>
                    <path d="M25.4960777,54.8487642 L37.7537087,25.1460515 C42.6261748,13.3887458 47.7271845,5.49889491 50.544466,3.64220411 L50.544466,3.5649505 L33.6424854,3.5649505 L33.6424854,3.64220411 C39.6568155,4.87999798 42.3215922,13.1565509 37.3730874,25.0687979 L31.8910291,38.3729119 L22.6787961,18.8806966 C18.8721553,10.8359044 16.588,4.87999798 18.6436117,3.5649505 L0.143106796,3.5649505 L0.143106796,3.64220411 C2.12267961,4.80274437 4.86349515,9.28909612 8.3655534,16.9467521 L21.4608932,45.4893586 C23.2879612,49.5117547 24.7344078,52.9152538 25.4196117,54.8487642 L25.4960777,54.8487642 M57.9133981,12.4604004 C53.6500971,12.4604004 50.528233,10.0625003 50.528233,6.34955269 C50.528233,2.79154634 53.6500971,0.316392612 57.9133981,0.316392612 C61.8725437,0.316392612 65.0700194,2.79154634 65.0700194,6.34955269 C65.0700194,10.0625003 61.8725437,12.4604004 57.9133981,12.4604004 M64.8419029,16.0960944 L49.7669903,16.0960944 L49.7669903,16.2506016 C52.2796893,17.4107078 52.6603107,24.9138566 52.6603107,34.8149055 C52.6603107,44.7159544 52.2796893,52.2191032 49.7669903,53.3792095 L49.7669903,53.4564631 L66.8975146,53.4564631 L66.8975146,53.3792095 C64.3848155,52.2191032 64.0041942,44.7159544 64.0041942,34.8149055 C64.0041942,24.9138566 64.3848155,17.8750975 64.8419029,16.173348 L64.8419029,16.0960944 M84.2561553,54.2298673 C73.7495534,54.2298673 66.7450097,45.2571638 66.7450097,34.3509498 C66.7450097,23.4443019 74.1301748,14.8583005 85.0934369,14.8583005 C96.3612816,14.8583005 102.071456,23.9859452 102.071456,33.9642478 C102.071456,44.7932081 95.1433786,54.2298673 84.2561553,54.2298673 M85.4740583,53.7659116 C88.3673786,53.7659116 89.9659029,49.434067 89.9659029,36.3617139 C89.9659029,22.5936441 87.5296699,15.3999438 83.4949126,15.3999438 C80.7536699,15.3999438 79.0026408,18.8806966 79.0026408,32.0303034 C79.0026408,46.0310019 81.5153398,53.7659116 85.4740583,53.7659116 M102.032583,53.4564631 L119.16268,53.4564631 L119.16268,53.3792095 C116.650408,52.2191032 116.269786,44.7159544 116.269786,29.1684475 C116.269786,16.7922449 116.421864,7.27789809 118.325398,0.780348307 L118.249359,0.703094693 L102.337165,3.5649505 L102.337165,3.64220411 C104.620893,5.4216413 104.925476,11.9964447 104.925476,29.1684475 C104.925476,44.7159544 104.544854,52.2191032 102.032583,53.3792095 L102.032583,53.4564631 M132.71468,32.8809611 C134.84633,34.0415014 138.120272,34.7376519 140.861087,34.7376519 C146.875845,34.7376519 151.596233,31.101958 151.596233,24.836603 C151.596233,17.8750975 145.505437,14.7810469 138.27235,14.7810469 C124.568272,14.7810469 119.010175,25.0687979 119.010175,34.9698468 C119.010175,46.3400164 127.004505,54.2298673 137.054447,54.2298673 C145.505437,54.2298673 150.07332,50.2851588 151.596233,46.8816597 L151.520194,46.8044061 C149.388117,49.434067 146.647301,51.058563 142.536078,51.058563 C135.912583,51.058563 131.268233,45.3348514 131.268233,33.3453508 C131.268233,21.9747472 133.399883,15.3222562 136.901942,15.3222562 C139.262136,15.3222562 141.317748,18.4163069 141.317748,26.3061577 C141.317748,31.4114064 138.957981,33.4226044 135.912583,33.4226044 C134.922796,33.4226044 133.856971,33.1904096 132.71468,32.8037075 L132.71468,32.8809611 M166.74633,16.4827964 L173.294214,16.4827964 L173.294214,16.173348 L166.974874,16.173348 L166.974874,2.79154634 C165.680505,12.1509519 155.859107,16.173348 150.529553,16.173348 L149.920816,16.173348 L149.920816,16.4827964 L155.021825,16.4827964 L154.717243,43.6331018 C154.641204,51.5229527 157.534097,54.2298673 162.939689,54.2298673 C167.431961,54.2298673 171.466718,52.3736105 175.806485,48.8156041 L175.806485,48.6606629 C171.543184,50.9040558 166.670291,51.1358166 166.74633,43.5558482 L166.74633,16.4827964" id="Fill-5" fill="#FFFFFF" mask="url(#mask-2)"></path>
                </g>
            </g>
        </g>
    </g>
</svg>